<svg width="423.33125px" height="134px" xmlns="http://www.w3.org/2000/svg" viewBox="38.334374999999994 8 423.33125 134" style="background: rgba(0, 0, 0, 0);" preserveAspectRatio="xMidYMid"><defs><linearGradient id="editing-shiny-gradient" x1="0.953153893518325" x2="0.04684610648167503" y1="0.28869086912965025" y2="0.7113091308703497" gradientUnits="objectBoundingBox"><stop offset="0.0" stop-color="#ffb200"></stop><stop offset="0.5" stop-color="#e10057"></stop><stop offset="1.0" stop-color="#5A1A80"></stop></linearGradient><linearGradient id="editing-shiny-gradient2" x1="0" x2="0" y1="0" y2="1"><stop offset="0.2" stop-color="#fff" stop-opacity="0.8"></stop><stop offset="0.8" stop-color="#fff" stop-opacity="0"></stop></linearGradient><filter id="editing-shiny2" x="-100%" y="-100%" width="300%" height="300%"><feMorphology operator="erode" radius="2"></feMorphology></filter><filter id="editing-shiny" x="-100%" y="-100%" width="300%" height="300%"><feFlood flood-color="#fff" result="flood"></feFlood><feConvolveMatrix in="SourceGraphic" result="conv" order="8,8" divisor="1" kernelMatrix="0 0 0 0 0 0 0 0 0 0 0 1 1 0 0 0 0 0 0 1 1 0 0 0 0 0 1 0 0 1 0 0 0 0 1 0 0 1 0 0 0 1 0 0 0 0 1 0 0 1 1 0 0 1 1 0 0 0 0 1 1 0 0 0 "></feConvolveMatrix><feOffset dx="0" dy="4" in="conv" result="offset"></feOffset><feComposite operator="in" in="flood" in2="offset" result="comp"></feComposite><feGaussianBlur in="offset" stdDeviation="3" result="shadow"></feGaussianBlur><feColorMatrix in="shadow" type="matrix" values="0.7 0 0 0 0  0 0.7 0 0 0  0 0 0.7 0 0  0 0 0 0.3 0" result="dark-shadow"></feColorMatrix><feOffset dx="0" dy="4" in="dark-shadow" result="offset-shadow"></feOffset><feOffset dx="0" dy="2" in="conv" result="offset-2"></feOffset><feComposite operator="out" in="offset" in2="offset-2" result="edge-diff"></feComposite><feGaussianBlur in="edge-diff" stdDeviation="1" result="edge-blur"></feGaussianBlur><feColorMatrix in="edge-blur" result="edge-shadow" type="matrix" values="0 0 0 0 0  0 0 0 0 0  0 0 0 0 0  0 0 0 0.5 0"></feColorMatrix><feComposite operator="in" in="edge-shadow" in2="offset" result="edge-shadow-in"></feComposite><feOffset dx="0" dy="1" in="edge-shadow-in" result="edge-shadow-final"></feOffset><feMerge result="out"><feMergeNode in="offset-shadow"></feMergeNode><feMergeNode in="comp"></feMergeNode><feMergeNode in="edge-shadow-final"></feMergeNode><feMergeNode in="SourceGraphic"></feMergeNode></feMerge></filter></defs><g filter="url(#editing-shiny)"><g transform="translate(101.22998428344727, 104.5999984741211)"><path d="M3.84-10.43L3.84-10.43L3.84-10.43Q3.84-14.08 5.57-23.30L5.57-23.30L5.57-23.30Q7.30-32.51 7.68-34.94L7.68-34.94L4.29-41.79L4.29-41.79Q12.42-46.40 18.11-46.40L18.11-46.40L18.11-46.40Q20.93-46.40 22.34-44.48L22.34-44.48L22.34-44.48Q27.65-46.34 32.13-46.34L32.13-46.34L32.13-46.34Q40.45-46.34 45.06-40.93L45.06-40.93L45.06-40.93Q49.66-35.52 49.66-27.46L49.66-27.46L49.66-27.46Q49.66-16.83 41.86-7.94L41.86-7.94L41.86-7.94Q38.08-3.65 31.90-1.02L31.90-1.02L31.90-1.02Q25.73 1.60 18.69 1.60L18.69 1.60L18.69 1.60Q11.65 1.60 7.74-1.50L7.74-1.50L7.74-1.50Q3.84-4.61 3.84-10.43ZM17.41-8L17.41-8L17.41-8Q18.75-7.74 20.42-7.74L20.42-7.74L20.42-7.74Q27.39-7.74 31.30-12.77L31.30-12.77L31.30-12.77Q35.20-17.79 35.20-25.15L35.20-25.15L35.20-25.15Q35.20-31.10 32.51-34.62L32.51-34.62L32.51-34.62Q29.82-38.14 24.77-38.14L24.77-38.14L24.77-38.14Q24-38.14 22.21-37.89L22.21-37.89L22.21-37.89Q21.76-34.62 19.87-23.33L19.87-23.33L19.87-23.33Q17.98-12.03 17.41-8ZM70.85 1.60L70.85 1.60L70.85 1.60Q62.08 1.60 57.31-2.94L57.31-2.94L57.31-2.94Q52.54-7.49 52.54-15.23L52.54-15.23L52.54-15.23Q52.54-25.54 59.62-31.97L59.62-31.97L59.62-31.97Q66.69-38.40 77.38-38.40L77.38-38.40L77.38-38.40Q83.33-38.40 86.40-35.74L86.40-35.74L86.40-35.74Q89.47-33.09 89.47-28.74L89.47-28.74L89.47-28.74Q89.47-22.78 83.68-18.85L83.68-18.85L83.68-18.85Q77.89-14.91 65.79-14.85L65.79-14.85L65.79-14.85Q65.98-10.75 67.65-8.42L67.65-8.42L67.65-8.42Q69.31-6.08 71.81-6.08L71.81-6.08L71.81-6.08Q74.30-6.08 76.13-7.74L76.13-7.74L76.13-7.74Q77.95-9.41 77.95-13.18L77.95-13.18L77.95-13.18Q87.30-13.18 87.30-8.77L87.30-8.77L87.30-8.77Q87.30-4.99 82.69-1.70L82.69-1.70L82.69-1.70Q78.08 1.60 70.85 1.60ZM76.29-30.91L76.29-30.91L76.29-30.91Q73.02-30.91 70.30-27.65L70.30-27.65L70.30-27.65Q67.58-24.38 66.37-19.97L66.37-19.97L66.37-19.97Q72.77-20.48 76-22.88L76-22.88L76-22.88Q79.23-25.28 79.23-27.97L79.23-27.97L79.23-27.97Q79.23-29.25 78.43-30.08L78.43-30.08L78.43-30.08Q77.63-30.91 76.29-30.91ZM97.79-7.04L97.79-7.04L97.79-7.04Q97.79-7.04 98.05-24.64L98.05-24.64L98.05-24.64Q98.05-32.06 94.59-35.65L94.59-35.65L94.59-35.65Q97.92-38.40 101.89-38.40L101.89-38.40L101.89-38.40Q107.07-38.40 108.93-33.79L108.93-33.79L108.93-33.79Q110.53-29.82 110.53-21.79L110.53-21.79L110.53-21.79Q110.53-13.76 110.21-6.21L110.21-6.21L112.38-6.21L112.38-6.21Q122.11-26.62 122.11-32.77L122.11-32.77L122.11-32.77Q122.11-34.24 121.54-35.65L121.54-35.65L121.54-35.65Q126.27-38.40 130.11-38.40L130.11-38.40L130.11-38.40Q135.10-38.40 135.10-32.38L135.10-32.38L135.10-32.38Q135.10-29.63 133.70-25.50L133.70-25.50L133.70-25.50Q132.29-21.38 129.38-14.88L129.38-14.88L129.38-14.88Q126.46-8.38 126.34-8.13L126.34-8.13L127.17-4.42L127.17-4.42Q124.48-1.98 119.49-0.19L119.49-0.19L119.49-0.19Q114.50 1.60 108.93 1.60L108.93 1.60L108.93 1.60Q103.36 1.60 100.58-0.42L100.58-0.42L100.58-0.42Q97.79-2.43 97.79-7.04ZM173.95-14.02L173.95-14.02L173.95-14.02Q173.57-11.71 173.57-10.50L173.57-10.50L173.57-10.50Q173.57-4.29 175.49-1.22L175.49-1.22L175.49-1.22Q171.65 1.66 167.49 1.66L167.49 1.66L167.49 1.66Q163.33 1.66 161.54-0.74L161.54-0.74L161.54-0.74Q159.74-3.14 159.74-7.90L159.74-7.90L159.74-7.90Q159.74-12.67 163.78-34.94L163.78-34.94L160.38-41.79L160.38-41.79Q167.62-46.46 173.57-46.46L173.57-46.46L173.57-46.46Q175.23-46.46 177.22-45.86L177.22-45.86L177.22-45.86Q179.20-45.25 180.03-44.48L180.03-44.48L180.03-44.48Q184.77-46.34 188.80-46.34L188.80-46.34L188.80-46.34Q194.82-46.34 198.30-42.14L198.30-42.14L198.30-42.14Q201.79-37.95 201.79-32L201.79-32L201.79-32Q201.79-24.83 196.61-19.20L196.61-19.20L196.61-19.20Q194.11-16.45 189.89-14.78L189.89-14.78L189.89-14.78Q185.66-13.12 181.28-13.12L181.28-13.12L181.28-13.12Q176.90-13.12 173.95-14.02ZM175.17-21.31L175.17-21.31L175.17-21.31Q176.06-21.12 177.02-21.12L177.02-21.12L177.02-21.12Q181.12-21.12 184.32-24L184.32-24L184.32-24Q187.52-26.88 187.52-31.10L187.52-31.10L187.52-31.10Q187.52-34.05 185.82-36.10L185.82-36.10L185.82-36.10Q184.13-38.14 181.06-38.14L181.06-38.14L181.06-38.14Q179.78-38.14 178.11-37.63L178.11-37.63L178.11-37.63Q176.83-28.86 175.17-21.31ZM236.22-33.54L236.22-33.54L236.22-33.54Q239.81-33.54 242.40-30.66L242.40-30.66L242.40-30.66Q244.99-27.78 244.99-22.30L244.99-22.30L244.99-22.30Q244.99-16.83 243.07-12.19L243.07-12.19L243.07-12.19Q241.15-7.55 238.02-4.61L238.02-4.61L238.02-4.61Q234.88-1.66 230.91-0.03L230.91-0.03L230.91-0.03Q226.94 1.60 222.78 1.60L222.78 1.60L222.78 1.60Q214.40 1.60 209.54-3.01L209.54-3.01L209.54-3.01Q204.67-7.62 204.67-15.23L204.67-15.23L204.67-15.23Q204.67-25.54 211.30-31.97L211.30-31.97L211.30-31.97Q217.92-38.40 228.16-38.40L228.16-38.40L228.16-38.40Q230.46-38.40 232.77-37.89L232.77-37.89L232.77-37.89Q233.47-35.78 233.54-33.09L233.54-33.09L233.54-33.09Q234.88-33.54 236.22-33.54ZM228.35-24.64L228.35-24.64L228.35-24.64Q228.35-26.43 229.22-28.67L229.22-28.67L229.22-28.67Q230.08-30.91 232-32.26L232-32.26L232-32.26Q223.55-30.46 220.35-25.41L220.35-25.41L220.35-25.41Q217.60-21.06 217.60-16.45L217.60-16.45L217.60-16.45Q217.60-11.84 219.49-9.06L219.49-9.06L219.49-9.06Q221.38-6.27 224.32-6.27L224.32-6.27L224.32-6.27Q230.85-6.27 233.54-14.78L233.54-14.78L233.54-14.78Q228.35-17.98 228.35-24.64ZM258.18 12.74L258.18 12.74L258.18 12.74Q254.21 12.74 252.64 10.78L252.64 10.78L252.64 10.78Q251.07 8.83 251.07 5.15L251.07 5.15L251.07 5.15Q251.07 1.47 252.64-9.66L252.64-9.66L252.64-9.66Q254.21-20.80 255.68-28.67L255.68-28.67L252.10-33.79L252.10-33.79Q256.06-36.10 258.94-37.28L258.94-37.28L258.94-37.28Q261.82-38.46 264.64-38.46L264.64-38.46L264.64-38.46Q269.25-38.46 269.25-32.38L269.25-32.38L269.25-32.38Q269.25-31.55 268.99-28.99L268.99-28.99L269.63-28.67L269.63-28.67Q271.49-33.28 275.01-35.87L275.01-35.87L275.01-35.87Q278.53-38.46 283.30-38.46L283.30-38.46L283.30-38.46Q288.06-38.46 290.88-34.14L290.88-34.14L290.88-34.14Q293.70-29.82 293.70-23.42L293.70-23.42L293.70-23.42Q293.70-14.85 287.68-7.81L287.68-7.81L287.68-7.81Q284.74-4.35 279.81-2.21L279.81-2.21L279.81-2.21Q274.88-0.06 268.80-0.06L268.80-0.06L268.80-0.06Q266.94-0.06 263.94-0.38L263.94-0.38L263.94-0.38Q263.74 1.86 263.74 3.78L263.74 3.78L263.74 3.78Q263.74 7.87 265.73 9.60L265.73 9.60L265.73 9.60Q262.14 12.74 258.18 12.74ZM266.56-13.76L266.56-13.76L265.09-6.34L265.09-6.34Q272.83-6.53 277.47-11.42L277.47-11.42L277.47-11.42Q282.11-16.32 282.11-22.14L282.11-22.14L282.11-22.14Q282.11-25.15 280.93-26.98L280.93-26.98L280.93-26.98Q279.74-28.80 277.50-28.80L277.50-28.80L277.50-28.80Q269.57-28.80 266.56-13.76Z" fill="url(#editing-shiny-gradient)"></path></g></g><g filter="url(#editing-shiny2)"><g transform="translate(101.23001480102539, 104.60000228881836)"><path d="M3.84-10.43L3.84-10.43L3.84-10.43Q3.84-14.08 5.57-23.30L5.57-23.30L5.57-23.30Q7.30-32.51 7.68-34.94L7.68-34.94L4.29-41.79L4.29-41.79Q12.42-46.40 18.11-46.40L18.11-46.40L18.11-46.40Q20.93-46.40 22.34-44.48L22.34-44.48L22.34-44.48Q27.65-46.34 32.13-46.34L32.13-46.34L32.13-46.34Q40.45-46.34 45.06-40.93L45.06-40.93L45.06-40.93Q49.66-35.52 49.66-27.46L49.66-27.46L49.66-27.46Q49.66-16.83 41.86-7.94L41.86-7.94L41.86-7.94Q38.08-3.65 31.90-1.02L31.90-1.02L31.90-1.02Q25.73 1.60 18.69 1.60L18.69 1.60L18.69 1.60Q11.65 1.60 7.74-1.50L7.74-1.50L7.74-1.50Q3.84-4.61 3.84-10.43ZM17.41-8L17.41-8L17.41-8Q18.75-7.74 20.42-7.74L20.42-7.74L20.42-7.74Q27.39-7.74 31.30-12.77L31.30-12.77L31.30-12.77Q35.20-17.79 35.20-25.15L35.20-25.15L35.20-25.15Q35.20-31.10 32.51-34.62L32.51-34.62L32.51-34.62Q29.82-38.14 24.77-38.14L24.77-38.14L24.77-38.14Q24-38.14 22.21-37.89L22.21-37.89L22.21-37.89Q21.76-34.62 19.87-23.33L19.87-23.33L19.87-23.33Q17.98-12.03 17.41-8ZM70.85 1.60L70.85 1.60L70.85 1.60Q62.08 1.60 57.31-2.94L57.31-2.94L57.31-2.94Q52.54-7.49 52.54-15.23L52.54-15.23L52.54-15.23Q52.54-25.54 59.62-31.97L59.62-31.97L59.62-31.97Q66.69-38.40 77.38-38.40L77.38-38.40L77.38-38.40Q83.33-38.40 86.40-35.74L86.40-35.74L86.40-35.74Q89.47-33.09 89.47-28.74L89.47-28.74L89.47-28.74Q89.47-22.78 83.68-18.85L83.68-18.85L83.68-18.85Q77.89-14.91 65.79-14.85L65.79-14.85L65.79-14.85Q65.98-10.75 67.65-8.42L67.65-8.42L67.65-8.42Q69.31-6.08 71.81-6.08L71.81-6.08L71.81-6.08Q74.30-6.08 76.13-7.74L76.13-7.74L76.13-7.74Q77.95-9.41 77.95-13.18L77.95-13.18L77.95-13.18Q87.30-13.18 87.30-8.77L87.30-8.77L87.30-8.77Q87.30-4.99 82.69-1.70L82.69-1.70L82.69-1.70Q78.08 1.60 70.85 1.60ZM76.29-30.91L76.29-30.91L76.29-30.91Q73.02-30.91 70.30-27.65L70.30-27.65L70.30-27.65Q67.58-24.38 66.37-19.97L66.37-19.97L66.37-19.97Q72.77-20.48 76-22.88L76-22.88L76-22.88Q79.23-25.28 79.23-27.97L79.23-27.97L79.23-27.97Q79.23-29.25 78.43-30.08L78.43-30.08L78.43-30.08Q77.63-30.91 76.29-30.91ZM97.79-7.04L97.79-7.04L97.79-7.04Q97.79-7.04 98.05-24.64L98.05-24.64L98.05-24.64Q98.05-32.06 94.59-35.65L94.59-35.65L94.59-35.65Q97.92-38.40 101.89-38.40L101.89-38.40L101.89-38.40Q107.07-38.40 108.93-33.79L108.93-33.79L108.93-33.79Q110.53-29.82 110.53-21.79L110.53-21.79L110.53-21.79Q110.53-13.76 110.21-6.21L110.21-6.21L112.38-6.21L112.38-6.21Q122.11-26.62 122.11-32.77L122.11-32.77L122.11-32.77Q122.11-34.24 121.54-35.65L121.54-35.65L121.54-35.65Q126.27-38.40 130.11-38.40L130.11-38.40L130.11-38.40Q135.10-38.40 135.10-32.38L135.10-32.38L135.10-32.38Q135.10-29.63 133.70-25.50L133.70-25.50L133.70-25.50Q132.29-21.38 129.38-14.88L129.38-14.88L129.38-14.88Q126.46-8.38 126.34-8.13L126.34-8.13L127.17-4.42L127.17-4.42Q124.48-1.98 119.49-0.19L119.49-0.19L119.49-0.19Q114.50 1.60 108.93 1.60L108.93 1.60L108.93 1.60Q103.36 1.60 100.58-0.42L100.58-0.42L100.58-0.42Q97.79-2.43 97.79-7.04ZM173.95-14.02L173.95-14.02L173.95-14.02Q173.57-11.71 173.57-10.50L173.57-10.50L173.57-10.50Q173.57-4.29 175.49-1.22L175.49-1.22L175.49-1.22Q171.65 1.66 167.49 1.66L167.49 1.66L167.49 1.66Q163.33 1.66 161.54-0.74L161.54-0.74L161.54-0.74Q159.74-3.14 159.74-7.90L159.74-7.90L159.74-7.90Q159.74-12.67 163.78-34.94L163.78-34.94L160.38-41.79L160.38-41.79Q167.62-46.46 173.57-46.46L173.57-46.46L173.57-46.46Q175.23-46.46 177.22-45.86L177.22-45.86L177.22-45.86Q179.20-45.25 180.03-44.48L180.03-44.48L180.03-44.48Q184.77-46.34 188.80-46.34L188.80-46.34L188.80-46.34Q194.82-46.34 198.30-42.14L198.30-42.14L198.30-42.14Q201.79-37.95 201.79-32L201.79-32L201.79-32Q201.79-24.83 196.61-19.20L196.61-19.20L196.61-19.20Q194.11-16.45 189.89-14.78L189.89-14.78L189.89-14.78Q185.66-13.12 181.28-13.12L181.28-13.12L181.28-13.12Q176.90-13.12 173.95-14.02ZM175.17-21.31L175.17-21.31L175.17-21.31Q176.06-21.12 177.02-21.12L177.02-21.12L177.02-21.12Q181.12-21.12 184.32-24L184.32-24L184.32-24Q187.52-26.88 187.52-31.10L187.52-31.10L187.52-31.10Q187.52-34.05 185.82-36.10L185.82-36.10L185.82-36.10Q184.13-38.14 181.06-38.14L181.06-38.14L181.06-38.14Q179.78-38.14 178.11-37.63L178.11-37.63L178.11-37.63Q176.83-28.86 175.17-21.31ZM236.22-33.54L236.22-33.54L236.22-33.54Q239.81-33.54 242.40-30.66L242.40-30.66L242.40-30.66Q244.99-27.78 244.99-22.30L244.99-22.30L244.99-22.30Q244.99-16.83 243.07-12.19L243.07-12.19L243.07-12.19Q241.15-7.55 238.02-4.61L238.02-4.61L238.02-4.61Q234.88-1.66 230.91-0.03L230.91-0.03L230.91-0.03Q226.94 1.60 222.78 1.60L222.78 1.60L222.78 1.60Q214.40 1.60 209.54-3.01L209.54-3.01L209.54-3.01Q204.67-7.62 204.67-15.23L204.67-15.23L204.67-15.23Q204.67-25.54 211.30-31.97L211.30-31.97L211.30-31.97Q217.92-38.40 228.16-38.40L228.16-38.40L228.16-38.40Q230.46-38.40 232.77-37.89L232.77-37.89L232.77-37.89Q233.47-35.78 233.54-33.09L233.54-33.09L233.54-33.09Q234.88-33.54 236.22-33.54ZM228.35-24.64L228.35-24.64L228.35-24.64Q228.35-26.43 229.22-28.67L229.22-28.67L229.22-28.67Q230.08-30.91 232-32.26L232-32.26L232-32.26Q223.55-30.46 220.35-25.41L220.35-25.41L220.35-25.41Q217.60-21.06 217.60-16.45L217.60-16.45L217.60-16.45Q217.60-11.84 219.49-9.06L219.49-9.06L219.49-9.06Q221.38-6.27 224.32-6.27L224.32-6.27L224.32-6.27Q230.85-6.27 233.54-14.78L233.54-14.78L233.54-14.78Q228.35-17.98 228.35-24.64ZM258.18 12.74L258.18 12.74L258.18 12.74Q254.21 12.74 252.64 10.78L252.64 10.78L252.64 10.78Q251.07 8.83 251.07 5.15L251.07 5.15L251.07 5.15Q251.07 1.47 252.64-9.66L252.64-9.66L252.64-9.66Q254.21-20.80 255.68-28.67L255.68-28.67L252.10-33.79L252.10-33.79Q256.06-36.10 258.94-37.28L258.94-37.28L258.94-37.28Q261.82-38.46 264.64-38.46L264.64-38.46L264.64-38.46Q269.25-38.46 269.25-32.38L269.25-32.38L269.25-32.38Q269.25-31.55 268.99-28.99L268.99-28.99L269.63-28.67L269.63-28.67Q271.49-33.28 275.01-35.87L275.01-35.87L275.01-35.87Q278.53-38.46 283.30-38.46L283.30-38.46L283.30-38.46Q288.06-38.46 290.88-34.14L290.88-34.14L290.88-34.14Q293.70-29.82 293.70-23.42L293.70-23.42L293.70-23.42Q293.70-14.85 287.68-7.81L287.68-7.81L287.68-7.81Q284.74-4.35 279.81-2.21L279.81-2.21L279.81-2.21Q274.88-0.06 268.80-0.06L268.80-0.06L268.80-0.06Q266.94-0.06 263.94-0.38L263.94-0.38L263.94-0.38Q263.74 1.86 263.74 3.78L263.74 3.78L263.74 3.78Q263.74 7.87 265.73 9.60L265.73 9.60L265.73 9.60Q262.14 12.74 258.18 12.74ZM266.56-13.76L266.56-13.76L265.09-6.34L265.09-6.34Q272.83-6.53 277.47-11.42L277.47-11.42L277.47-11.42Q282.11-16.32 282.11-22.14L282.11-22.14L282.11-22.14Q282.11-25.15 280.93-26.98L280.93-26.98L280.93-26.98Q279.74-28.80 277.50-28.80L277.50-28.80L277.50-28.80Q269.57-28.80 266.56-13.76Z" fill="url(#editing-shiny-gradient2)"></path></g></g><style>text {
  font-size: 64px;
  font-family: Arial Black;
  dominant-baseline: central;
  text-anchor: middle;
}</style></svg>